<svg id="Layer_1" data-name="Layer 1" xmlns="http://www.w3.org/2000/svg" viewBox="0 0 33.58 4.46"><defs><style>.cls-1{fill:#001a2d;}.cls-2{fill:#007aff;}</style></defs><path class="cls-1" d="M5.43,1.87h.14a.25.25,0,0,0,.13,0,.23.23,0,0,0,.1-.07L6.65.69,6.77.6a.33.33,0,0,1,.15,0h.5l-1,1.29A.58.58,0,0,1,6.18,2a.47.47,0,0,1,.12.07.36.36,0,0,1,.11.13L7.49,3.68H7a.28.28,0,0,1-.15,0l-.09-.08L5.86,2.42a.14.14,0,0,0-.09-.08.33.33,0,0,0-.15,0H5.43V3.68H4.85V.57h.58Z" transform="translate(-0.06)"/><path class="cls-1" d="M8.22,1.75a.86.86,0,0,1,.14-.13l.15-.1.18-.06.21,0a.83.83,0,0,1,.32.06.66.66,0,0,1,.23.17.87.87,0,0,1,.14.27,1.16,1.16,0,0,1,.05.34v1.4H9.11V2.28A.51.51,0,0,0,9,2a.36.36,0,0,0-.28-.11.46.46,0,0,0-.26.07.87.87,0,0,0-.23.16v1.6H7.72V1.47H8a.14.14,0,0,1,.14.1Z" transform="translate(-0.06)"/><path class="cls-1" d="M11.12,1.44a1.33,1.33,0,0,1,.45.08.89.89,0,0,1,.34.23.84.84,0,0,1,.22.35,1.4,1.4,0,0,1,.08.47,1.42,1.42,0,0,1-.08.48,1,1,0,0,1-.22.36,1,1,0,0,1-.34.22,1.31,1.31,0,0,1-.9,0,1,1,0,0,1-.34-.22,1.11,1.11,0,0,1-.23-.36A1.43,1.43,0,0,1,10,2.57a1.41,1.41,0,0,1,.07-.47,1,1,0,0,1,.23-.35.89.89,0,0,1,.34-.23A1.33,1.33,0,0,1,11.12,1.44Zm0,1.86a.48.48,0,0,0,.41-.18.9.9,0,0,0,.13-.54A1,1,0,0,0,11.53,2a.48.48,0,0,0-.41-.18.47.47,0,0,0-.41.18,1,1,0,0,0-.14.55.94.94,0,0,0,.14.54A.47.47,0,0,0,11.12,3.3Z" transform="translate(-0.06)"/><path class="cls-1" d="M15.73,1.47,15,3.68H14.6s-.08,0-.1-.09l-.4-1.28,0-.13,0-.12,0,.13,0,.13-.4,1.27a.12.12,0,0,1-.12.09h-.41l-.7-2.21h.43a.17.17,0,0,1,.1,0,.18.18,0,0,1,0,.07l.32,1.18c0,.07,0,.13,0,.19l0,.19c0-.07,0-.13,0-.19l.06-.19.36-1.18a.18.18,0,0,1,.05-.07.16.16,0,0,1,.09,0h.24a.12.12,0,0,1,.09,0,.13.13,0,0,1,.06.07l.35,1.18.06.19c0,.06,0,.13,0,.19,0-.12.05-.25.08-.38l.33-1.18a.18.18,0,0,1,.05-.07.16.16,0,0,1,.09,0Z" transform="translate(-0.06)"/><path class="cls-1" d="M16.57.49V3.68H16V.49Z" transform="translate(-0.06)"/><path class="cls-1" d="M17.51,2.64a1.13,1.13,0,0,0,.06.3.56.56,0,0,0,.12.2.35.35,0,0,0,.19.12.56.56,0,0,0,.23,0,.69.69,0,0,0,.22,0l.17-.06.12-.07a.19.19,0,0,1,.1,0c.05,0,.08,0,.1.05l.15.19a.65.65,0,0,1-.2.17.94.94,0,0,1-.22.12l-.25.06h-.24a1.16,1.16,0,0,1-.42-.07.93.93,0,0,1-.35-.23A1.06,1.06,0,0,1,17.06,3,1.6,1.6,0,0,1,17,2.53a1.16,1.16,0,0,1,.07-.42,1,1,0,0,1,.21-.35.86.86,0,0,1,.33-.23A1.06,1.06,0,0,1,18,1.44a1,1,0,0,1,.38.07.89.89,0,0,1,.31.19.85.85,0,0,1,.19.32,1.08,1.08,0,0,1,.08.42.3.3,0,0,1,0,.16.11.11,0,0,1-.1,0Zm1-.32a.58.58,0,0,0,0-.19A.51.51,0,0,0,18.4,2a.38.38,0,0,0-.14-.11.46.46,0,0,0-.21,0,.47.47,0,0,0-.36.13.61.61,0,0,0-.17.37Z" transform="translate(-0.06)"/><path class="cls-1" d="M21.31.49V3.68H21a.13.13,0,0,1-.14-.1l0-.21a1.07,1.07,0,0,1-.31.25.84.84,0,0,1-.4.09.72.72,0,0,1-.33-.07.78.78,0,0,1-.26-.22,1,1,0,0,1-.17-.35,1.83,1.83,0,0,1-.06-.49,1.33,1.33,0,0,1,.07-.45,1.18,1.18,0,0,1,.19-.37.89.89,0,0,1,.3-.24.8.8,0,0,1,.39-.09.71.71,0,0,1,.31.06.78.78,0,0,1,.24.16V.49ZM20.78,2a.49.49,0,0,0-.2-.16.56.56,0,0,0-.23,0,.46.46,0,0,0-.21,0A.46.46,0,0,0,20,2a.54.54,0,0,0-.1.23,1.15,1.15,0,0,0,0,.33,1.55,1.55,0,0,0,0,.33.63.63,0,0,0,.09.22.31.31,0,0,0,.14.12.41.41,0,0,0,.19,0,.51.51,0,0,0,.28-.07A.77.77,0,0,0,20.78,3Z" transform="translate(-0.06)"/><path class="cls-1" d="M23.77,1.55v.2c0,.06,0,.1-.11.11l-.2,0a.69.69,0,0,1,0,.25.73.73,0,0,1-.06.3,1,1,0,0,1-.18.22.82.82,0,0,1-.28.14.93.93,0,0,1-.34,0h-.12l-.12,0a.17.17,0,0,0-.1.14.11.11,0,0,0,.06.1.53.53,0,0,0,.16,0l.23,0H23l.27,0,.23.08a.49.49,0,0,1,.16.16.5.5,0,0,1,.06.26.55.55,0,0,1-.07.28.82.82,0,0,1-.21.25,1,1,0,0,1-.33.17,1.64,1.64,0,0,1-.46.07,1.81,1.81,0,0,1-.43,0,1.11,1.11,0,0,1-.31-.13.54.54,0,0,1-.18-.19.43.43,0,0,1-.06-.22.35.35,0,0,1,.09-.25A.62.62,0,0,1,22,3.45a.33.33,0,0,1-.14-.12.31.31,0,0,1-.05-.2.18.18,0,0,1,0-.1.54.54,0,0,1,.05-.11A.38.38,0,0,1,22,2.83a.43.43,0,0,1,.13-.09.7.7,0,0,1-.27-.24.68.68,0,0,1-.09-.35.73.73,0,0,1,.06-.3A1,1,0,0,1,22,1.63a.92.92,0,0,1,.28-.14,1,1,0,0,1,.35-.05l.27,0a.92.92,0,0,1,.23.09Zm-.53,2.23a.15.15,0,0,0,0-.11l-.1-.06a.76.76,0,0,0-.16,0l-.19,0h-.2l-.21,0-.15.12a.28.28,0,0,0-.05.16.19.19,0,0,0,0,.1.2.2,0,0,0,.09.09.56.56,0,0,0,.17.06l.24,0,.26,0A.75.75,0,0,0,23.11,4a.22.22,0,0,0,.1-.09A.27.27,0,0,0,23.24,3.78Zm-.6-1.26.17,0a.57.57,0,0,0,.13-.08A.41.41,0,0,0,23,2.31a.68.68,0,0,0,0-.15.37.37,0,0,0-.09-.26.45.45,0,0,0-.3-.09.4.4,0,0,0-.29.09.34.34,0,0,0-.1.26.77.77,0,0,0,0,.15.44.44,0,0,0,.08.11.36.36,0,0,0,.12.08Z" transform="translate(-0.06)"/><path class="cls-1" d="M24.48,2.64a.67.67,0,0,0,.06.3.56.56,0,0,0,.12.2.36.36,0,0,0,.18.12.61.61,0,0,0,.24,0,.69.69,0,0,0,.22,0l.17-.06.12-.07a.19.19,0,0,1,.1,0,.1.1,0,0,1,.1.05l.15.19a.65.65,0,0,1-.2.17,1.19,1.19,0,0,1-.22.12l-.25.06H25a1.25,1.25,0,0,1-.43-.07,1,1,0,0,1-.34-.23A1.06,1.06,0,0,1,24,3,1.37,1.37,0,0,1,24,2.53,1.16,1.16,0,0,1,24,2.11a1,1,0,0,1,.21-.35.86.86,0,0,1,.33-.23A1.06,1.06,0,0,1,25,1.44a1,1,0,0,1,.38.07.77.77,0,0,1,.3.19.76.76,0,0,1,.2.32,1.08,1.08,0,0,1,.08.42.3.3,0,0,1,0,.16.11.11,0,0,1-.1,0Zm1-.32a.58.58,0,0,0,0-.19A.51.51,0,0,0,25.37,2,.45.45,0,0,0,25,1.82a.49.49,0,0,0-.37.13.67.67,0,0,0-.16.37Z" transform="translate(-0.06)"/><path class="cls-2" d="M30.78,0l0,3.62h-.66l0-2.22V1.26a1,1,0,0,1,0-.17l-1,2a.27.27,0,0,1-.26.17h-.1a.26.26,0,0,1-.26-.16l-1.07-2c0,.06,0,.12,0,.17a.86.86,0,0,1,0,.15l0,2.23h-.66L26.79.06h.72a.1.1,0,0,1,0,0s0,0,.05.06l1,1.92.09.18.08.18a1.54,1.54,0,0,1,.08-.19A1,1,0,0,1,29,2.07L30,.13A.18.18,0,0,1,30,.06a.09.09,0,0,1,0,0l.06,0h.66Z" transform="translate(-0.06)"/><path class="cls-2" d="M31.94,2.42a.84.84,0,0,0,.22.53.74.74,0,0,0,.7.12L33,3l.14-.08a.28.28,0,0,1,.13,0,.14.14,0,0,1,.12.06l.2.25a1.12,1.12,0,0,1-.23.21,1.47,1.47,0,0,1-.28.14,1.43,1.43,0,0,1-.28.07l-.28,0a1.44,1.44,0,0,1-.51-.08,1.07,1.07,0,0,1-.4-.26,1.17,1.17,0,0,1-.29-.42,1.79,1.79,0,0,1-.1-.6,1.15,1.15,0,0,1,.08-.49,1.06,1.06,0,0,1,.24-.41A1.21,1.21,0,0,1,32,1.09,1.42,1.42,0,0,1,32.49,1a1.34,1.34,0,0,1,.46.08,1,1,0,0,1,.36.22,1.13,1.13,0,0,1,.24.36,1.31,1.31,0,0,1,.09.5.53.53,0,0,1,0,.13.19.19,0,0,1,0,.08.1.1,0,0,1,0,0h-.07ZM33,2a.64.64,0,0,0,0-.2.51.51,0,0,0-.09-.18.57.57,0,0,0-.16-.11.56.56,0,0,0-.23,0,.52.52,0,0,0-.38.14A.71.71,0,0,0,32,2Z" transform="translate(-0.06)"/><path class="cls-1" d="M1.66,2V3.26a1.23,1.23,0,0,1,0,.19.14.14,0,0,1-.09.12.54.54,0,0,1-.45,0,.61.61,0,0,1-.26-.19.41.41,0,0,0-.2-.14.71.71,0,0,1-.47-.58V2.55a.28.28,0,0,0,0-.18.72.72,0,0,1,.12-.79.44.44,0,0,0,.11-.24A.68.68,0,0,1,.75.77.39.39,0,0,0,.89.65a.54.54,0,0,1,.27-.2.52.52,0,0,1,.45.08.13.13,0,0,1,0,.12Zm-.09.23h0a1.41,1.41,0,0,0,0-.2.15.15,0,0,0-.17-.14A.36.36,0,0,0,1,2.07.54.54,0,0,1,1,2.18s-.05.06-.11,0L.76,2.15a.16.16,0,0,0-.24,0,.07.07,0,0,1-.12,0s-.05-.08,0-.12a.23.23,0,0,0,.07-.21c0-.05,0-.08.07-.09a.08.08,0,0,1,.09,0,.41.41,0,0,0,.05.09.16.16,0,0,0,.24,0L1,1.84a.48.48,0,0,1,.44-.16h.05a.09.09,0,0,0,.1-.07s0-.06,0-.08,0-.15,0-.22a.08.08,0,0,0-.06-.09l-.07,0A.37.37,0,0,1,1.22,1s0,0,0-.05,0-.08,0-.09a.09.09,0,0,1,.09,0A.94.94,0,0,1,1.45,1s.07,0,.09,0,0-.05,0-.08V.86A.24.24,0,0,0,1.4.63a.33.33,0,0,0-.34.11A.31.31,0,0,0,1,1.08a.42.42,0,0,0,.3.26c.06,0,.08,0,.08.08a.11.11,0,0,1-.09.09H1.16a.18.18,0,0,0-.25.11.07.07,0,0,1-.09,0,.08.08,0,0,1-.07-.09.26.26,0,0,1,.09-.19.15.15,0,0,0,0-.13c0-.06-.05-.13-.08-.2S.75,1,.72,1a.46.46,0,0,0-.18.39.25.25,0,0,1-.11.26.47.47,0,0,0-.12.6.45.45,0,0,1,0,.28A.49.49,0,0,0,.63,3a.07.07,0,0,0,.1,0l0-.08A.24.24,0,0,1,1.1,2.8a.23.23,0,0,0,.25,0s.08,0,.12,0a.08.08,0,0,1,0,.12A.19.19,0,0,1,1.39,3c-.09,0-.09.07-.06.16s0,.09,0,.11a.08.08,0,0,1-.11,0l-.05-.14A.12.12,0,0,0,1,3a.11.11,0,0,0-.08.14s0,0,0,0a.4.4,0,0,0,.39.26c.15,0,.24,0,.25-.21a2.44,2.44,0,0,0,0-.47c0-.09,0-.11-.12-.13l-.17-.06a.22.22,0,0,0-.11,0c-.15.07-.32.08-.44.2a.08.08,0,0,1-.11,0,.06.06,0,0,1,0-.09.17.17,0,0,0,0-.18L.57,2.4s0-.08,0-.11a.09.09,0,0,1,.12,0l.06.06A.22.22,0,0,0,1,2.4a.22.22,0,0,0,.15-.17s0,0,0-.06.06-.07.12-.06.06.05.05.12,0,.17.15.2.09,0,.09-.07Z" transform="translate(-0.06)"/><path class="cls-1" d="M1.76,2V.66A.16.16,0,0,1,1.88.48a.49.49,0,0,1,.63.17.46.46,0,0,0,.17.14A.64.64,0,0,1,3,1.36a.3.3,0,0,0,.1.2.74.74,0,0,1,.14.78.59.59,0,0,0,0,.22.71.71,0,0,1-.47.69.52.52,0,0,0-.22.17.58.58,0,0,1-.64.16c-.11,0-.14-.08-.14-.19V2Zm.07,1h0V3.2A.2.2,0,0,0,2,3.42a.47.47,0,0,0,.36-.11.29.29,0,0,0,.11-.21A.11.11,0,0,0,2.34,3s-.06,0-.08.08a.67.67,0,0,1-.06.15.07.07,0,0,1-.1,0s-.05-.05,0-.1A.1.1,0,0,0,2,3S2,3,2,2.92a.08.08,0,0,1,0-.11.08.08,0,0,1,.14,0,.2.2,0,0,0,.21,0h0a.25.25,0,0,1,.34.14.14.14,0,0,0,0,.06c0,.07.06.08.12,0L2.85,3A.43.43,0,0,0,3,2.59a.54.54,0,0,1,.08-.33.43.43,0,0,0,0-.22.47.47,0,0,0-.22-.39.16.16,0,0,1-.07-.18A.6.6,0,0,0,2.7,1h0s-.08,0-.09,0a.75.75,0,0,1-.05.16c0,.08,0,.11,0,.17a.25.25,0,0,1,.08.18.07.07,0,0,1-.06.09.07.07,0,0,1-.09,0,.18.18,0,0,0-.22-.12H2.21a.21.21,0,0,1-.11,0A.1.1,0,0,1,2,1.41a.08.08,0,0,1,.08-.07h0A.37.37,0,0,0,2.4.82.32.32,0,0,0,1.92.68c-.09.07-.08.17-.08.26s0,.06,0,.07A.09.09,0,0,0,2,1L2.06.92a.08.08,0,0,1,.12,0,.1.1,0,0,1,0,.13A.35.35,0,0,1,2,1.2a.15.15,0,0,0-.12.16v.17c0,.13,0,.16.16.15a.46.46,0,0,1,.28,0,.77.77,0,0,1,.19.17.11.11,0,0,0,.15.05.19.19,0,0,0,.14-.13.1.1,0,0,1,.1-.07.08.08,0,0,1,.06.09A.32.32,0,0,0,3,2s0,.1,0,.13-.08,0-.13,0a.15.15,0,0,0-.2,0l-.14.08c-.06,0-.09,0-.12,0S2.36,2.08,2.33,2A.34.34,0,0,0,2,1.87.13.13,0,0,0,1.84,2v.33c0,.07,0,.1.1.08s.14-.08.14-.19V2.19s0-.08.07-.08.07,0,.09.06l0,.1a.21.21,0,0,0,.34.09l.09-.08a.08.08,0,0,1,.11,0,.09.09,0,0,1,0,.1s0,0,0,0a.15.15,0,0,0,0,.22.06.06,0,0,1,0,.1.08.08,0,0,1-.11,0l-.14-.09a.6.6,0,0,0-.55,0,.17.17,0,0,0-.11.15C1.84,2.83,1.84,2.92,1.83,3Z" transform="translate(-0.06)"/></svg>